G04*
G04 #@! TF.GenerationSoftware,Altium Limited,Altium Designer,23.3.1 (30)*
G04*
G04 Layer_Color=65535*
%FSLAX44Y44*%
%MOMM*%
G71*
G04*
G04 #@! TF.SameCoordinates,A51BE0CB-2EC6-4780-A809-610C83DCC7D3*
G04*
G04*
G04 #@! TF.FilePolarity,Positive*
G04*
G01*
G75*
%ADD10C,0.2000*%
%ADD11C,0.1270*%
%ADD12C,0.2540*%
D10*
X199700Y99650D02*
G03*
X199700Y99650I-1000J0D01*
G01*
X281500Y216650D02*
G03*
X281500Y216650I-1000J0D01*
G01*
X234000Y231500D02*
Y272500D01*
Y231500D02*
X256000D01*
Y272500D01*
X234000D02*
X256000D01*
X258500Y47500D02*
Y88500D01*
X236500D02*
X258500D01*
X236500Y47500D02*
Y88500D01*
Y47500D02*
X258500D01*
D11*
X61700Y312900D02*
X186700D01*
X61700Y4800D02*
Y312900D01*
Y4800D02*
X186700D01*
Y312900D01*
X292500Y3400D02*
X417500D01*
Y311500D01*
X292500D02*
X417500D01*
X292500Y3400D02*
Y311500D01*
D12*
X272500Y302617D02*
X267422D01*
X269961D01*
Y289922D01*
X267422Y287383D01*
X264883D01*
X262343Y289922D01*
X277578Y287383D02*
X282657D01*
X280117D01*
Y302617D01*
X277578Y300078D01*
X234804Y202383D02*
Y217617D01*
X242422D01*
X244961Y215078D01*
Y210000D01*
X242422Y207461D01*
X234804D01*
X239883D02*
X244961Y202383D01*
X260196D02*
X250039D01*
X260196Y212539D01*
Y215078D01*
X257657Y217617D01*
X252578D01*
X250039Y215078D01*
X247343Y322382D02*
Y337617D01*
X254961D01*
X257500Y335078D01*
Y330000D01*
X254961Y327461D01*
X247343D01*
X252422D02*
X257500Y322382D01*
X262578D02*
X267657D01*
X265118D01*
Y337617D01*
X262578Y335078D01*
X202461Y302817D02*
X197383D01*
X199922D01*
Y290122D01*
X197383Y287582D01*
X194843D01*
X192304Y290122D01*
X217696Y287582D02*
X207539D01*
X217696Y297739D01*
Y300278D01*
X215157Y302817D01*
X210078D01*
X207539Y300278D01*
M02*
